<?xml version="1.0" encoding="utf-8"?><svg version="1.1" id="Layer_1" xmlns="http://www.w3.org/2000/svg" xmlns:xlink="http://www.w3.org/1999/xlink" x="0px" y="0px" viewBox="0 0 122.88 122.34" style="enable-background:new 0 0 122.88 122.34" xml:space="preserve" width="19" height="19"><g><path d="M58.61,28.13c-1.3,0-2.35-1.05-2.35-2.35c0-1.3,1.05-2.35,2.35-2.35h16.22c1.3,0,2.35,1.05,2.35,2.35 c0,1.3-1.05,2.35-2.35,2.35H58.61L58.61,28.13z M85.5,25.16h22.19c0.97,0,1.8,0.59,2.16,1.42l12.57,24.27 c0.2,0.38,0.28,0.8,0.26,1.2l0.21,67.94c0,1.29-1.05,2.34-2.34,2.34v0.01H2.35c-1.3,0-2.35-1.05-2.35-2.35V51.95l0-0.02l0-0.02 l0-0.02v0l0-0.02l0-0.02l0-0.02l0-0.01l0-0.02l0-0.03v0l0-0.01l0-0.04l0-0.01l0-0.01l0-0.04l0-0.01l0-0.01l0.01-0.04l0,0l0-0.02 l0.01-0.04l0,0l0,0l0.01-0.04l0-0.02v0l0.01-0.04l0.01-0.02l0-0.02l0-0.02l0-0.01l0-0.01l0.01-0.02l0.01-0.02l0-0.01l0-0.01 l0.01-0.02l0.01-0.02l0-0.01l0-0.01l0.01-0.02l0-0.01l0.01-0.03l0.01-0.02l0.01-0.02l0.01-0.02l0.01-0.02l0.01-0.02v0l0.01-0.02 l0.01-0.02v0l0.02-0.04L0.2,51l0.02-0.04l0,0l0.01-0.02l0.01-0.01l0-0.01l0.01-0.02l0.01-0.02l0.01-0.02l0.01-0.02l0.02-0.04 L0.3,50.8l0,0l0.02-0.03l0.01-0.02l0.01-0.02l0.01-0.02l12.78-24.3c0.42-0.8,1.23-1.25,2.07-1.25v-0.01h21.7V2.91 c0-0.8,0.33-1.53,0.85-2.06C38.28,0.33,39.01,0,39.81,0h42.78c0.8,0,1.53,0.33,2.06,0.85c0.53,0.53,0.85,1.25,0.85,2.06V25.16 L85.5,25.16z M36.9,29.85H16.61L6.23,49.6H116.5l-10.23-19.75H85.5v7.35h5.17c1.3,0,2.35,1.05,2.35,2.35c0,1.3-1.05,2.35-2.35,2.35 h-7.52H39.25h-6.3c-1.3,0-2.35-1.05-2.35-2.35c0-1.3,1.05-2.35,2.35-2.35h3.96V29.85L36.9,29.85z M4.69,54.3v63.35h113.5L118,54.3 H4.69L4.69,54.3z M80.81,4.69H41.59V37.2h39.22V4.69L80.81,4.69z M47.58,17.11c-1.3,0-2.35-1.05-2.35-2.35 c0-1.3,1.05-2.35,2.35-2.35h27.24c1.3,0,2.35,1.05,2.35,2.35c0,1.3-1.05,2.35-2.35,2.35H47.58L47.58,17.11z"/></g></svg>