<?xml version="1.0" encoding="UTF-8"?>
<svg width="35px" height="35px" version="1.1" viewBox="0 0 1200 1200" xmlns="http://www.w3.org/2000/svg">
 <path fill="#FFFFFF" d="m878.29 1021c-5.4258 0-10.387-3.1328-12.711-8.0664-2.3867-5.0664-1.5312-11.066 2.168-15.27l38.574-43.797-305.23-268.84-86.688 98.422c-2.4648 2.7969-5.9375 4.4961-9.6523 4.7344-3.7148 0.23828-7.3789-1.0156-10.176-3.4766l-338.75-298.36c-5.8203-5.1289-6.3867-14.004-1.2578-19.828l47.434-53.852c2.4648-2.7969 5.9336-4.5 9.6523-4.7344s7.3789 1.0156 10.172 3.4766l270.88 238.58 86.688-98.422c2.4648-2.7969 5.9375-4.5 9.6523-4.7344 3.7188-0.23047 7.3789 1.0156 10.172 3.4766l373.1 328.62 38.227-43.398c3.6992-4.2031 9.5469-5.8047 14.875-4.0781 5.3281 1.7227 9.1211 6.4531 9.6523 12.027l15.047 157.21c0.37109 3.8672-0.875 7.7109-3.4414 10.625-2.5664 2.9141-6.2227 4.6328-10.105 4.7578l-157.85 4.9258c-0.14062-0.003906-0.28906-0.003906-0.43359-0.003906zm-278.45-369.84c3.4062 0 6.7109 1.2383 9.2852 3.5078l326.32 287.41c5.8203 5.1289 6.3867 14.004 1.2578 19.828l-26.426 30 110.46-3.4453-10.527-110.01-26.074 29.605c-2.4648 2.7969-5.9336 4.5-9.6523 4.7344-3.7188 0.23828-7.3789-1.0156-10.176-3.4766l-373.11-328.62-86.688 98.422c-2.4648 2.7969-5.9375 4.4961-9.6523 4.7344-3.7188 0.23438-7.3789-1.0156-10.176-3.4766l-270.88-238.59-28.859 32.77 317.66 279.79 86.688-98.422c2.4648-2.7969 5.9375-4.5 9.6523-4.7344 0.29688-0.019531 0.59375-0.027344 0.89062-0.027344z" fill-rule="evenodd"/>
 <path fill="#FFFFFF" d="m970.66 508.65h-377.96c-5.125 0-9.8398-2.7891-12.309-7.2773-2.4688-4.4922-2.2969-9.9648 0.44531-14.297l188.98-297.96c2.5742-4.0625 7.0547-6.5234 11.863-6.5234 4.8125 0 9.2891 2.4609 11.863 6.5234l188.98 297.96c2.7422 4.3281 2.9141 9.8047 0.44531 14.297-2.4688 4.4883-7.1875 7.2773-12.312 7.2773zm-352.41-28.098h326.87l-163.43-257.68z" fill-rule="evenodd"/>
 <path fill="#FFFFFF" d="m881.21 831.48c-2.1445 0-4.3203-0.49219-6.3594-1.5312-6.9141-3.5195-9.6641-11.977-6.1445-18.895 21.68-42.59 32.672-88.602 32.672-136.76 0-61.762-18.508-121.13-53.52-171.69-4.418-6.3789-2.8281-15.133 3.5508-19.547 6.3789-4.418 15.133-2.8281 19.547 3.5508 38.281 55.281 58.516 120.18 58.516 187.69 0 26.395-3.125 52.668-9.2969 78.086-5.9961 24.707-14.891 48.738-26.438 71.422-2.4766 4.875-7.4062 7.6797-12.527 7.6797z" fill-rule="evenodd"/>
 <path fill="#FFFFFF" d="m323.59 533.82c-2.3242 0-4.6797-0.57812-6.8555-1.7969-6.7695-3.793-9.1836-12.355-5.3906-19.121 1.4961-2.6719 2.9961-5.2617 4.4609-7.7109 28.777-48.164 69.645-88.504 118.18-116.66 50.035-29.02 107.22-44.359 165.39-44.359 26.215 0 52.305 3.082 77.547 9.1641 7.543 1.8164 12.184 9.4062 10.367 16.949s-9.4062 12.184-16.949 10.367c-23.09-5.5625-46.965-8.3828-70.965-8.3828-105.74 0-205.15 56.457-259.45 147.34-1.3359 2.2266-2.6992 4.582-4.0625 7.0156-2.5703 4.6055-7.3438 7.1914-12.266 7.1914z" fill-rule="evenodd"/>
 <path fill="#FFFFFF" d="m599.37 1004.4c-44.559 0-87.789-8.7305-128.5-25.945-39.309-16.625-74.613-40.426-104.93-70.738s-54.113-65.613-70.738-104.93c-17.219-40.703-25.945-83.938-25.945-128.5 0-29.883 4-59.516 11.887-88.078 2.0664-7.4766 9.8008-11.871 17.281-9.8008 7.4766 2.0664 11.867 9.8008 9.8008 17.281-7.2148 26.125-10.875 53.242-10.875 80.598 0 166.53 135.48 302.01 302.01 302.01 89.281 0 173.5-39.203 231.08-107.55 5-5.9336 13.859-6.6914 19.797-1.6914 5.9336 4.9961 6.6914 13.859 1.6953 19.797-62.93 74.699-154.99 117.55-252.57 117.55z" fill-rule="evenodd"/>
 <path fill="#FFFFFF" d="m781.68 405.05c-7.7578 0-14.047-6.2891-14.047-14.047v-95.566c0-7.7578 6.2891-14.047 14.047-14.047 7.7578 0 14.047 6.2891 14.047 14.047v95.57c0 7.7539-6.2891 14.043-14.047 14.043z" fill-rule="evenodd"/>
 <path fill="#FFFFFF" d="m781.68 452.36c-7.7578 0-14.047-6.2891-14.047-14.047v-4.1719c0-7.7578 6.2891-14.047 14.047-14.047 7.7578 0 14.047 6.2891 14.047 14.047v4.1719c0 7.7578-6.2891 14.047-14.047 14.047z" fill-rule="evenodd"/>
</svg>
