<svg fill="#FFFFFF" height="30px" width="30px" version="1.1" id="Layer_1" xmlns="http://www.w3.org/2000/svg" xmlns:xlink="http://www.w3.org/1999/xlink" viewBox="0 0 512 512" xml:space="preserve" stroke="#000000"><g id="SVGRepo_bgCarrier" stroke-width="0"></g><g id="SVGRepo_tracerCarrier" stroke-linecap="round" stroke-linejoin="round"></g><g id="SVGRepo_iconCarrier"> <g> <g> <path d="M503.83,454.809c-4.513,0-8.17,3.658-8.17,8.17v2.723H16.34v-2.723c0-4.512-3.657-8.17-8.17-8.17S0,458.467,0,462.979 v10.894c0,4.512,3.657,8.17,8.17,8.17h495.66c4.513,0,8.17-3.658,8.17-8.17v-10.894C512,458.467,508.343,454.809,503.83,454.809z"></path> </g> </g> <g> <g> <path d="M503.83,411.234c-4.513,0-8.17,3.658-8.17,8.17v2.723H16.34v-2.723c0-4.512-3.657-8.17-8.17-8.17S0,414.892,0,419.404 v10.894c0,4.512,3.657,8.17,8.17,8.17h495.66c4.513,0,8.17-3.658,8.17-8.17v-10.894C512,414.892,508.343,411.234,503.83,411.234z"></path> </g> </g> <g> <g> <path d="M503.83,367.66c-4.513,0-8.17,3.658-8.17,8.17v2.723H16.34v-2.723c0-4.512-3.657-8.17-8.17-8.17S0,371.318,0,375.83 v10.894c0,4.512,3.657,8.17,8.17,8.17h495.66c4.513,0,8.17-3.658,8.17-8.17V375.83C512,371.318,508.343,367.66,503.83,367.66z"></path> </g> </g> <g> <g> <path d="M503.83,29.957H8.17c-4.513,0-8.17,3.658-8.17,8.17v305.021c0,4.512,3.657,8.17,8.17,8.17h495.66 c4.513,0,8.17-3.658,8.17-8.17V38.128C512,33.616,508.343,29.957,503.83,29.957z M495.66,334.979H16.34V46.298H495.66V334.979z"></path> </g> </g> <g> <g> <path d="M256,106.213c-46.552,0-84.426,37.873-84.426,84.426s37.874,84.426,84.426,84.426s84.426-37.873,84.426-84.426 S302.552,106.213,256,106.213z M323.577,182.468h-34.136c-0.715-20.691-4.159-41.366-10.601-55.962 C302.713,135.035,320.46,156.529,323.577,182.468z M188.423,198.809h34.135c0.715,20.686,4.154,41.364,10.592,55.958 C209.282,246.236,191.54,224.744,188.423,198.809z M222.555,182.468h-34.133c3.118-25.935,20.86-47.428,44.727-55.958 C226.711,141.104,223.27,161.782,222.555,182.468z M266.221,241.976c-4.589,13.767-9.302,16.748-10.223,16.748 s-5.633-2.98-10.223-16.748c-3.891-11.674-6.276-26.774-6.873-43.167h34.191C272.497,215.201,270.114,230.302,266.221,241.976z M238.906,182.468c0.597-16.393,2.98-31.493,6.873-43.167c4.588-13.767,9.301-16.748,10.221-16.748s5.633,2.98,10.223,16.748 c3.891,11.674,6.276,26.774,6.873,43.167H238.906z M278.84,254.77c6.441-14.595,9.888-35.269,10.603-55.962h34.135 C320.46,224.748,302.712,246.243,278.84,254.77z"></path> </g> </g> <g> <g> <path d="M110.298,166.128c-13.515,0-24.511,10.995-24.511,24.511s10.996,24.511,24.511,24.511 c13.515,0,24.511-10.995,24.511-24.511S123.813,166.128,110.298,166.128z M110.298,198.809c-4.506,0-8.17-3.665-8.17-8.17 s3.665-8.17,8.17-8.17c4.506,0,8.17,3.665,8.17,8.17S114.803,198.809,110.298,198.809z"></path> </g> </g> <g> <g> <path d="M401.702,166.128c-13.515,0-24.511,10.995-24.511,24.511s10.996,24.511,24.511,24.511 c13.515,0,24.511-10.995,24.511-24.511S415.217,166.128,401.702,166.128z M401.702,198.809c-4.506,0-8.17-3.665-8.17-8.17 s3.665-8.17,8.17-8.17c4.506,0,8.17,3.665,8.17,8.17S406.208,198.809,401.702,198.809z"></path> </g> </g> <g> <g> <path d="M471.149,95.319c-13.515,0-24.511-10.995-24.511-24.511c0-4.512-3.657-8.17-8.17-8.17H73.532 c-4.513,0-8.17,3.658-8.17,8.17c0,13.516-10.996,24.511-24.511,24.511c-4.513,0-8.17,3.658-8.17,8.17v174.298 c0,4.512,3.657,8.17,8.17,8.17c13.515,0,24.511,10.995,24.511,24.511c0,4.512,3.657,8.17,8.17,8.17h364.936 c4.513,0,8.17-3.658,8.17-8.17c0-13.516,10.996-24.511,24.511-24.511c4.513,0,8.17-3.658,8.17-8.17V103.489 C479.319,98.977,475.662,95.319,471.149,95.319z M462.979,270.438c-15.982,3.257-28.602,15.879-31.861,31.861H80.882 c-3.258-15.983-15.879-28.603-31.861-31.862V110.839c15.982-3.257,28.602-15.879,31.861-31.861h350.236 c3.258,15.982,15.879,28.602,31.861,31.861V270.438z"></path> </g> </g> </g></svg>