<?xml version="1.0" encoding="UTF-8"?>
<svg width="30px" height="30px" version="1.1" viewBox="0 0 100 100" xmlns="http://www.w3.org/2000/svg">
 <path fill="#FFFFFF" d="m31.711 84.988h68.289v4.4219h-68.289z"/>
 <path fill="#FFFFFF" d="m85.301 17.371h2.4102v-5.0312c0-0.96094-0.78125-1.7383-1.7383-1.7383h-18.871c-0.96094 0-1.7383 0.78125-1.7383 1.7383v5.0312z"/>
 <path fill="#FFFFFF" d="m29.789 74.469c0.14063-0.64844-0.28125-1.2891-0.92969-1.4297l-12.012-2.5312 10.473-3.5078c0.66016-0.21875 1.1094-0.78906 1.1797-1.4805 0.078125-0.69141-0.25-1.3281-0.83984-1.6914l-5.0312-2.9805 5.5117 0.51953c0.67188 0.058593 1.3086-0.26172 1.6602-0.83984 0.35156-0.57812 0.32812-1.3008-0.039062-1.8594l-5.1211-7.7695 8.1406 4.4219c0.60156 0.32813 1.3203 0.28906 1.8789-0.12109 0.55859-0.41016 0.80859-1.0781 0.67969-1.7617l-1.0781-5.2383 3.4219 4.1211c0.42969 0.53125 1.1211 0.76172 1.7812 0.58984 0.67188-0.17188 1.1602-0.69141 1.2891-1.3594l1.8984-9.8203 3.3477 8.8594c0.23047 0.62891 0.78906 1.0586 1.4492 1.1289 0.67188 0.070312 1.3086-0.23828 1.6719-0.80859l2.5586-4.0703-0.53906 5.7617c-0.050781 0.69141 0.28906 1.3281 0.89062 1.6719 0.60156 0.33984 1.3203 0.30078 1.8906-0.10938l4.9688-3.6016c0.53906-0.39062 0.66016-1.1484 0.26953-1.6914-0.39062-0.53906-1.1484-0.66016-1.6914-0.26953l-3.7812 2.7383 0.66016-7.0508c0.078125-0.82031-0.41016-1.5703-1.1914-1.8281-0.78125-0.26172-1.6094 0.050781-2.0195 0.73828l-3.3398 5.3008-3.7109-9.8281c-0.28125-0.73828-1-1.1914-1.7891-1.1211-0.78906 0.070313-1.4102 0.64062-1.5586 1.4102l-2.0781 10.738-4.2305-5.1016c-0.51172-0.62109-1.3789-0.80078-2.1016-0.44922-0.73047 0.35156-1.1211 1.1289-0.94922 1.9219l1.3203 6.4414-9.2188-5.0117c-0.71094-0.39062-1.5781-0.25-2.1289 0.33984-0.55078 0.58984-0.62109 1.4688-0.17187 2.1484l5.8203 8.8398-7.0781-0.66016c-0.82031-0.070313-1.5703 0.42969-1.8203 1.2109s0.070313 1.6211 0.78125 2.0391l6.3203 3.75-11.41 3.8203c-0.75 0.25-1.2188 0.94922-1.1914 1.7383 0.039063 0.78906 0.58984 1.4414 1.3789 1.6289l14.398 3.0391c0.10156 0.019531 0.19922 0.03125 0.30078 0.019531 0.51953-0.015624 1-0.39453 1.1094-0.94531z"/>
 <path fill="#FFFFFF" d="m16.07 57.461c0.53906-0.019532 1.0195-0.39844 1.1289-0.96094 0.14062-0.64844-0.28125-1.2891-0.92969-1.4297l-12-2.5195 10.469-3.5117c0.66016-0.21875 1.1094-0.78906 1.1797-1.4805 0.078125-0.69141-0.25-1.3281-0.83984-1.6914l-5.0312-2.9805 5.5117 0.51953c0.67188 0.058594 1.3086-0.26172 1.6602-0.83984s0.32812-1.3008-0.039062-1.8594l-5.1211-7.7695 8.1406 4.4219c0.60156 0.32812 1.3203 0.28906 1.8789-0.12109 0.55078-0.41016 0.80859-1.0781 0.67969-1.7617l-1.0781-5.2383 3.4219 4.1211c0.42969 0.53125 1.1211 0.76172 1.7812 0.58984 0.67188-0.17188 1.1602-0.69141 1.2891-1.3594l1.8984-9.8203 3.3516 8.8594c0.23047 0.62891 0.78906 1.0586 1.4492 1.1289 0.67188 0.070313 1.3086-0.23828 1.6719-0.80859l2.5586-4.0703-0.53906 5.7617c-0.050781 0.69141 0.28906 1.3281 0.89062 1.6719 0.60156 0.33984 1.3203 0.30078 1.8906-0.10938l4.9688-3.6016c0.53906-0.39062 0.66016-1.1484 0.26953-1.6914-0.39062-0.53906-1.1484-0.66016-1.6914-0.26953l-3.7812 2.7383 0.66016-7.0508c0.078125-0.82031-0.41016-1.5703-1.1914-1.8281-0.78125-0.26172-1.6094 0.050781-2.0195 0.73828l-3.3398 5.3008-3.7109-9.8281c-0.28125-0.73828-1-1.1914-1.7891-1.1211-0.78906 0.070312-1.4102 0.64062-1.5586 1.4102l-2.0781 10.738-4.2305-5.1016c-0.51172-0.62109-1.3789-0.80078-2.1016-0.44922-0.73047 0.35156-1.1211 1.1289-0.94922 1.9219l1.3203 6.4414-9.2188-5.0117c-0.71094-0.39062-1.5781-0.25-2.1289 0.33984-0.55078 0.58984-0.62109 1.4688-0.17188 2.1484l5.8203 8.8398-7.0781-0.66016c-0.82031-0.070312-1.5703 0.42969-1.8203 1.2109s0.070312 1.6211 0.78125 2.0391l6.3203 3.75-11.434 3.8242c-0.75 0.25-1.2305 0.95703-1.1914 1.75 0.039062 0.78906 0.58984 1.4414 1.3789 1.6289l14.398 3.0391c0.10156 0.011719 0.20312 0.019531 0.29297 0.011719z"/>
 <path fill="#FFFFFF" d="m72.16 81.922-1.7188 0.64844h15.48v-19.941h-17.602l-2.4883 5.9102 8.0781-0.91016c0.75-0.089844 1.4688 0.32031 1.7891 1.0117 0.32031 0.69141 0.14844 1.5-0.39844 2.0117l-7.3984 6.8711 4.0898 1.0781c0.73828 0.19141 1.2617 0.83984 1.3008 1.6016 0.035156 0.75781-0.42188 1.4453-1.1328 1.7188z"/>
 <path fill="#FFFFFF" d="m38.66 80.25c0.10156 0.69141-0.23047 1.3594-0.82812 1.7109l-1.0703 0.62109h26.891l1.9219-0.73047c0.03125-0.011718 0.058593-0.019531 0.10156-0.039062l0.039063-0.011719 3.6719-1.3906-3.25-0.85938c-0.53906-0.14062-0.96875-0.53125-1.1719-1.0312-0.019532-0.039062-0.03125-0.078125-0.039063-0.10938-0.011719-0.019531-0.011719-0.03125-0.011719-0.050781-0.011718-0.019531-0.019531-0.050781-0.019531-0.070313-0.011719-0.03125-0.019531-0.070312-0.019531-0.10156 0-0.039062-0.011719-0.078125-0.011719-0.12891v-0.39062c0-0.12109 0.019531-0.23828 0.050781-0.35156 0.011719-0.039062 0.03125-0.078125 0.039063-0.12109 0.10156-0.23047 0.23828-0.44141 0.42969-0.62109l6.8086-6.3203-7.1992 0.80859c-0.62109 0.070312-1.2188-0.19141-1.6016-0.67969-0.37891-0.5-0.46094-1.1406-0.21875-1.7188l0.14844-0.37109 3.4805-8.25-6.5391 4.3789c-0.55078 0.37109-1.2305 0.37891-1.7891 0.03125-0.55859-0.33984-0.85938-0.96094-0.78125-1.6211l0.53125-4.0117-1.8203 2.6602c-0.35938 0.53125-0.98047 0.80078-1.6094 0.71094-0.62891-0.089844-1.1406-0.51953-1.3516-1.1289l-2.3086-6.8906-1.75 7.5117c-0.14062 0.62891-0.62891 1.1094-1.2695 1.25s-1.2812-0.10156-1.6719-0.62109l-2.2695-2.9492 0.60938 3.6602c0.10938 0.64062-0.17188 1.2891-0.71094 1.6484-0.53906 0.37109-1.2188 0.37891-1.7891 0.050781l-6.0195-3.5703 3.6484 6.0195c0.32812 0.55078 0.32031 1.2305-0.03125 1.7695-0.35156 0.53906-0.96875 0.82812-1.6016 0.75l-3.7617-0.48828 3.3984 2.1914c0.55859 0.35938 0.83984 0.98828 0.73828 1.6289-0.089844 0.64844-0.53906 1.1719-1.1719 1.3594l-8.2109 2.4102 8.1094 2.0312c0.67969 0.17578 1.1797 0.72656 1.2812 1.4258z"/>
 <path fill="#FFFFFF" d="m60.289 61.5 7.25-4.8516c0.62109-0.41016 1.4102-0.37109 1.9805 0.10156 0.57031 0.46875 0.76172 1.25 0.46875 1.9297l-0.64844 1.5391h16.969c1.1094 0 2.0195 0.89844 2.0195 2.0117v20.352h4.7812v-62.801h-32.359v35.109c0.21875 0.32812 0.32031 0.73047 0.26172 1.1406zm20.191-37.199h4.7305c0.67187 0 1.2109 0.53906 1.2109 1.2109s-0.53906 1.2109-1.2109 1.2109h-4.7305c-0.67188 0-1.2109-0.53906-1.2109-1.2109s0.53906-1.2109 1.2109-1.2109zm0 9.6602h4.7305c0.67187 0 1.2109 0.53906 1.2109 1.2109s-0.53906 1.2109-1.2109 1.2109h-4.7305c-0.67188 0-1.2109-0.53906-1.2109-1.2109s0.53906-1.2109 1.2109-1.2109zm0 9.6602h4.7305c0.67187 0 1.2109 0.53906 1.2109 1.2109s-0.53906 1.2109-1.2109 1.2109h-4.7305c-0.67188 0-1.2109-0.53906-1.2109-1.2109s0.53906-1.2109 1.2109-1.2109zm0 9.6602h4.7305c0.67187 0 1.2109 0.53906 1.2109 1.2109 0 0.67187-0.53906 1.2109-1.2109 1.2109h-4.7305c-0.67188 0-1.2109-0.53906-1.2109-1.2109 0-0.67188 0.53906-1.2109 1.2109-1.2109zm-11.039-28.98h4.7305c0.67188 0 1.2109 0.53906 1.2109 1.2109s-0.53906 1.2109-1.2109 1.2109h-4.7305c-0.67188 0-1.2109-0.53906-1.2109-1.2109 0.007812-0.67188 0.55078-1.2109 1.2109-1.2109zm0 9.6602h4.7305c0.67188 0 1.2109 0.53906 1.2109 1.2109s-0.53906 1.2109-1.2109 1.2109h-4.7305c-0.67188 0-1.2109-0.53906-1.2109-1.2109 0.007812-0.67188 0.55078-1.2109 1.2109-1.2109zm0 9.6602h4.7305c0.67188 0 1.2109 0.53906 1.2109 1.2109s-0.53906 1.2109-1.2109 1.2109h-4.7305c-0.67188 0-1.2109-0.53906-1.2109-1.2109 0.007812-0.67188 0.55078-1.2109 1.2109-1.2109zm0 9.6602h4.7305c0.67188 0 1.2109 0.53906 1.2109 1.2109 0 0.67187-0.53906 1.2109-1.2109 1.2109h-4.7305c-0.67188 0-1.2109-0.53906-1.2109-1.2109 0.007812-0.67188 0.55078-1.2109 1.2109-1.2109z"/>
</svg>
