<?xml version="1.0" encoding="UTF-8"?>
<svg width="30pt" height="30pt" version="1.1" viewBox="0 0 100 100" xmlns="http://www.w3.org/2000/svg">
 <path d="m84.371 24h-2.9414v-1.6016c0-2.7891-2.2578-5.0547-5.0508-5.0586h-2.3789v-2.2812c-0.003906-1.3477-0.54297-2.6367-1.5-3.5859-0.95703-0.95312-2.25-1.4805-3.6016-1.4727h-53.27c-2.793 0.003906-5.0547 2.2695-5.0586 5.0586v63.941c0 6.0742 4.9258 11 11 11h58.34c5 0 9-4.6406 9.4688-10.539 0.03125-0.125 0.050782-0.25391 0.050782-0.38281v-50.078c-0.039063-2.7695-2.2891-4.9961-5.0586-5zm-62.82 62.441c-1.9727 0-3.8633-0.78516-5.2539-2.1836-1.3945-1.3945-2.1719-3.2852-2.168-5.2578v-64c0-0.82812 0.67188-1.5 1.5-1.5h53.27c0.82812 0 1.5 0.67188 1.5 1.5v63.449c-0.035157 2.8906 0.89844 5.707 2.6523 8zm58.359 0c-3.2812 0-6-3.5781-6-8v-57.59h2.4219-0.003906c0.83203 0 1.5 0.67188 1.5 1.5v56.727c-0.035156 0.49609 0.13672 0.98438 0.47266 1.3477 0.33594 0.35938 0.80859 0.56641 1.3047 0.56641 0.49609 0 0.96875-0.20703 1.3047-0.56641 0.33594-0.36328 0.50781-0.85156 0.46875-1.3477v-51.566h2.9414c0.82813 0 1.5 0.66797 1.5 1.5v49.438c0.050782 4.4102-2.6211 7.9922-5.9102 7.9922z"/>
 <path d="m41.891 46.699h-20.582c-1.832-0.03125-3.3047-1.5234-3.3086-3.3594v-20.82c0.003906-1.8516 1.5078-3.3555 3.3594-3.3594h20.531c1.8516 0.003906 3.3555 1.5078 3.3594 3.3594v20.82c-0.003906 1.8555-1.5078 3.3555-3.3594 3.3594zm-20.379-3.5586h20.18v-20.422h-20.18z"/>
 <path d="m64.559 22.719h-13.387c-0.98438 0-1.7812-0.79688-1.7812-1.7773 0-0.98438 0.79688-1.7812 1.7812-1.7812h13.387c0.98438 0 1.7812 0.79688 1.7812 1.7812 0 0.98047-0.79688 1.7773-1.7812 1.7773z"/>
 <path d="m64.559 30.711h-13.387c-0.49609 0.035156-0.98438-0.13281-1.3477-0.47266-0.35938-0.33594-0.56641-0.80859-0.56641-1.3047 0-0.49219 0.20703-0.96484 0.56641-1.3047 0.36328-0.33594 0.85156-0.50781 1.3477-0.46875h13.387c0.92969 0.070313 1.6484 0.84375 1.6484 1.7734 0 0.93359-0.71875 1.707-1.6484 1.7773z"/>
 <path d="m64.559 38.711h-13.387c-0.98438 0-1.7812-0.79688-1.7812-1.7812 0-0.98438 0.79688-1.7812 1.7812-1.7812h13.387c0.98438 0 1.7812 0.79687 1.7812 1.7812 0 0.98437-0.79688 1.7812-1.7812 1.7812z"/>
 <path d="m64.559 46.699h-13.387c-0.98438 0-1.7812-0.79688-1.7812-1.7773 0-0.98438 0.79688-1.7812 1.7812-1.7812h13.387c0.98438 0 1.7812 0.79688 1.7812 1.7812 0 0.98047-0.79688 1.7773-1.7812 1.7773z"/>
 <path d="m64.559 54.691h-44.828c-0.49609 0.035156-0.98047-0.13281-1.3438-0.47266-0.36328-0.33594-0.57031-0.80859-0.57031-1.3047 0-0.49609 0.20703-0.96875 0.57031-1.3047s0.84766-0.50781 1.3438-0.46875h44.828c0.92969 0.070313 1.6484 0.84375 1.6484 1.7734 0 0.93359-0.71875 1.707-1.6484 1.7773z"/>
 <path d="m64.559 62.691h-44.828c-0.98438 0-1.7812-0.79688-1.7812-1.7812s0.79688-1.7812 1.7812-1.7812h44.828c0.98438 0 1.7812 0.79688 1.7812 1.7812s-0.79688 1.7812-1.7812 1.7812z"/>
 <path d="m64.559 70.68h-44.828c-0.98438 0-1.7812-0.79688-1.7812-1.7812 0-0.98047 0.79688-1.7773 1.7812-1.7773h44.828c0.98438 0 1.7812 0.79688 1.7812 1.7773 0 0.98437-0.79688 1.7812-1.7812 1.7812z"/>
 <path d="m64.559 78.672h-44.828c-0.98438 0-1.7812-0.79688-1.7812-1.7812s0.79688-1.7812 1.7812-1.7812h44.828c0.98438 0 1.7812 0.79688 1.7812 1.7812s-0.79688 1.7812-1.7812 1.7812z"/>
</svg>
