<?xml version="1.0" encoding="UTF-8"?>
<svg width="30pt" height="30pt" version="1.1" viewBox="0 0 100 100" xmlns="http://www.w3.org/2000/svg">
 <path fill="#000000" d="m13.945 11v78c0 0.55469 0.44922 1 1 1h70.109c0.55078 0 1-0.44531 1-1v-59.438c0-0.023438-0.011719-0.039062-0.011719-0.0625-0.003907-0.089844-0.023438-0.17969-0.054688-0.26562-0.011719-0.03125-0.019531-0.0625-0.035156-0.09375-0.046875-0.10156-0.10938-0.19922-0.19141-0.28125l-0.003907-0.003906-18.559-18.562-0.003907-0.003907c-0.085937-0.082031-0.18359-0.14453-0.28516-0.19141-0.027344-0.011718-0.054687-0.019531-0.085937-0.03125-0.089844-0.03125-0.18359-0.050781-0.27734-0.054687-0.019531-0.003907-0.035156-0.011719-0.054687-0.011719h-51.547c-0.55078 0-1 0.44531-1 1zm53.547 2.4141 15.148 15.148h-15.148zm-51.547-1.4141h49.547v17.562c0 0.55469 0.44922 1 1 1h17.562v57.438h-68.109z"/>
 <path fill="#000000" d="m71.734 70.246h-5.0938v-23.426h5.0938c0.42578 0 0.80469-0.26953 0.94531-0.67187 0.14062-0.40234 0.007812-0.85156-0.32813-1.1133l-21.711-17.066c-0.36328-0.28516-0.875-0.28516-1.2344 0l-21.715 17.062c-0.33594 0.26562-0.46484 0.71094-0.32812 1.1133 0.14062 0.40234 0.51953 0.67188 0.94531 0.67188h5.1055v23.43h-5.1484c-0.55078 0-1 0.44531-1 1 0 0.55469 0.44922 1 1 1h43.469c0.55078 0 1-0.44531 1-1 0-0.55078-0.44922-1-1-1zm-7.0938 0h-13.641v-23.426h13.641zm-14.617-40.223 18.82 14.797h-37.641zm-14.605 16.797h13.582v23.43l-13.582-0.003906z"/>
</svg>
