<svg fill="#000000" height="30px" width="30px" version="1.1" id="Capa_1" xmlns="http://www.w3.org/2000/svg" xmlns:xlink="http://www.w3.org/1999/xlink" viewBox="0 0 489.506 489.506" xml:space="preserve"><g id="SVGRepo_bgCarrier" stroke-width="0"></g><g id="SVGRepo_tracerCarrier" stroke-linecap="round" stroke-linejoin="round"></g><g id="SVGRepo_iconCarrier"> <g id="XMLID_409_"> <path id="XMLID_414_" d="M244.762,116.566c-20.081,0-36.382,16.281-36.382,36.373c0,20.088,16.3,36.37,36.382,36.37 c20.082,0,36.381-16.282,36.381-36.37C281.144,132.847,264.844,116.566,244.762,116.566z"></path> <path id="XMLID_410_" d="M342.622,0H146.884c-8.693,0-15.738,7.048-15.738,15.745V95.16c0,5.631,3.129,10.346,7.57,13.122 c-2.385,3.721-3.318,8.299-1.922,12.848l16.214,52.917c0.769,2.519,2.184,4.803,4.075,6.633l43.58,42.024l-0.042,248.139 c0,10.315,8.351,18.664,18.667,18.664c10.297,0,18.673-8.348,18.673-18.664V359.611h13.603v111.231 c0,10.315,8.357,18.664,18.667,18.664c10.304,0,18.661-8.348,18.661-18.664l-0.05-248.139l43.598-42.024 c1.892-1.83,3.289-4.114,4.057-6.633l16.214-52.917c1.416-4.548,0.47-9.126-1.921-12.848c4.459-2.775,7.57-7.491,7.57-13.122 V15.745C358.36,7.048,351.32,0,342.622,0z M163.599,32.456h162.309v45.99H163.599V32.456z M307.93,161.07l-36.527,35.232h-53.298 l-36.528-35.232l-15.043-49.067c-0.128-0.409-0.434-0.698-0.592-1.092h157.642c-0.159,0.394-0.482,0.683-0.61,1.092L307.93,161.07z "></path> </g> </g></svg>