<?xml version="1.0" encoding="UTF-8"?>
<svg width="30px" height="30px" version="1.1" viewBox="0 0 1200 1200" xmlns="http://www.w3.org/2000/svg">
 <path fill="#FFFFFF" d="m748.18 927.94-34.547-138.19c-1.5938-6.2812-4.0312-12.281-7.4062-17.812l-49.969-83.297v-88.547c0-10.359-8.3906-18.75-18.75-18.75s-18.75 8.3906-18.75 18.75v93.75c0 3.375 0.9375 6.75 2.6719 9.6562l52.688 87.797c1.4062 2.3438 2.4844 4.9688 3.1875 7.6406l35.812 143.26c0.84375 3.2812 2.5312 6.2812 4.9219 8.7188l5.4844 5.4844h-33.844l-33.938-135.79c-0.60938-2.4375-1.6875-4.6875-3.1875-6.7031l-56.25-75c-6.1875-8.2969-18-9.9375-26.25-3.75-8.2969 6.1875-9.9375 18-3.75 26.25l54 72 36.562 146.34c2.0625 8.3438 9.5625 14.203 18.188 14.203h93.75c7.5938 0 14.438-4.5938 17.344-11.578 2.9062-7.0312 1.3125-15.094-4.0312-20.438l-33.844-33.844z"/>
 <path fill="#FFFFFF" d="m1012.5 375h-18.75v-75c0-10.359-8.3906-18.75-18.75-18.75s-18.75 8.3906-18.75 18.75v5.25l-96.797 32.25h-90.703c-10.359 0-18.75 8.3906-18.75 18.75v75c0 10.359 8.3906 18.75 18.75 18.75h18.75v29.719l-51.656 51.703c-5.8125-10.219-13.312-22.875-21.75-35.578-9.0938-13.641-17.719-25.031-25.922-34.219 25.453-12 43.125-37.922 43.125-67.875 0-23.438-10.875-44.438-27.75-58.219l49.406-49.406-2.3438 9.3281c-2.5312 10.031 3.5625 20.25 13.641 22.734 10.031 2.5312 20.25-3.5625 22.734-13.641l18.75-75c2.0625-8.1562-1.5938-16.688-8.9531-20.859-7.3125-4.125-16.547-2.9062-22.5 3.0469l-107.72 107.72c-3.375-0.46875-6.75-0.75-10.266-0.75-41.344 0-75 33.656-75 75 0 18.469 6.7031 35.344 17.812 48.422-70.641 41.953-101.91 193.03-110.62 244.4-0.60938 3.6094-0.9375 7.3125-0.9375 11.016v124.03l-55.031 146.81c-2.1562 5.7656-1.3594 12.188 2.1562 17.25 3.4688 5.0625 9.2812 8.0625 15.422 8.0625h93.75c6.4688 0 12.562-3.375 15.938-8.9062 3.4219-5.5312 3.75-12.422 0.84375-18.234l-14.719-29.531 47.344-104.34c4.2656-9.4219 0.09375-20.531-9.3281-24.844s-20.531-0.09375-24.844 9.3281l-51 112.5c-2.3438 5.1562-2.25 11.062 0.28125 16.125l5.1562 10.359h-36.375l46.781-124.69c0.79688-2.1094 1.2188-4.3125 1.2188-6.5625v-127.4c0-1.5938 0.14062-3.1875 0.375-4.6875 18.328-107.91 61.219-224.11 112.12-224.11 0.14062 0 14.25 1.3125 45.188 47.625 17.906 26.812 31.688 54.234 31.828 54.516 2.6719 5.3906 7.8281 9.1875 13.781 10.125s12-0.98438 16.266-5.25l33.75-33.75c-3.4219 11.578-7.6875 23.109-12.562 33.75-13.641 29.812-26.953 41.625-33.375 42.844-10.969-5.4375-38.297-43.781-59.484-83.719-4.8281-9.1406-16.219-12.609-25.359-7.7812s-12.656 16.219-7.7812 25.359c0.51562 0.98438 13.031 24.562 28.969 48.469 25.781 38.719 44.484 55.219 62.578 55.219 32.109 0 54.984-35.25 68.531-64.875 15.281-33.328 24.938-73.078 25.219-103.69v-37.688h34.453l96.797 32.25v5.25c0 10.359 8.3906 18.75 18.75 18.75s18.75-8.3906 18.75-18.75v-75h18.75c10.359 0 18.75-8.3906 18.75-18.75s-8.3906-18.75-18.75-18.75zm-356.26 56.25c-20.672 0-37.5-16.828-37.5-37.5s16.828-37.5 37.5-37.5c20.672 0 37.5 16.828 37.5 37.5s-16.828 37.5-37.5 37.5zm187.5-18.75h-56.25v-37.5h56.25zm112.5 30.234-75-25.031v-48l75-25.031z"/>
 <path fill="#FFFFFF" d="m1162.5 375h-56.25c-10.359 0-18.75 8.3906-18.75 18.75s8.3906 18.75 18.75 18.75h56.25c10.359 0 18.75-8.3906 18.75-18.75s-8.3906-18.75-18.75-18.75z"/>
 <path fill="#FFFFFF" d="m1068.7 356.26c4.7812 0 9.5625-1.8281 13.266-5.4844l37.5-37.5c7.3125-7.3125 7.3125-19.219 0-26.531s-19.219-7.3125-26.531 0l-37.5 37.5c-7.3125 7.3125-7.3125 19.219 0 26.531 3.6562 3.6562 8.4375 5.4844 13.266 5.4844z"/>
 <path fill="#FFFFFF" d="m1082 436.74c-7.3125-7.3125-19.219-7.3125-26.531 0s-7.3125 19.219 0 26.531l37.5 37.5c3.6562 3.6562 8.4375 5.4844 13.266 5.4844s9.5625-1.8281 13.266-5.4844c7.3125-7.3125 7.3125-19.219 0-26.531z"/>
 <path fill="#FFFFFF" d="m302.34 468.89c-10.266-1.3125-19.641 6-20.906 16.312l-18.75 150c-0.14062 1.0781-0.1875 2.1562-0.09375 3.2812l9.3281 187.5c0.46875 10.031 8.8125 17.812 18.703 17.812h0.9375c10.312-0.51562 18.281-9.2812 17.812-19.688l-9.2344-185.86 18.562-148.4c1.3125-10.266-6-19.641-16.312-20.906z"/>
 <path fill="#FFFFFF" d="m386.81 934.5 80.766-215.39c3.6562-9.7031-1.2656-20.531-10.969-24.141-9.6562-3.6562-20.531 1.2656-24.141 10.969l-84.375 225c-2.25 6-1.3125 12.703 2.5781 17.812l5.625 7.5h-32.156l65.719-257.86c0.1875-0.84375 0.375-1.7812 0.46875-2.625l22.031-206.26c0.46875-4.6875-0.79688-9.4688-3.6562-13.219-17.344-23.156-32.062-47.297-43.688-71.812-4.4062-9.375-15.656-13.312-24.984-8.9062-9.375 4.4062-13.312 15.656-8.9062 24.984 11.719 24.656 26.156 48.891 43.125 72.234l-21.141 197.63-67.781 265.82h-24.188l-17.531-245.06c-0.65625-8.8125-7.3125-15.938-16.031-17.25-8.7188-1.2656-17.156 3.75-20.25 12l-84.375 225c-2.25 6-1.3125 12.703 2.5781 17.812l5.625 7.5h-32.156l65.719-257.86c0.1875-0.84375 0.375-1.7812 0.46875-2.625l22.031-206.26c0.60938-5.625-1.4062-11.25-5.3906-15.281-0.65625-0.65625-49.969-50.766-90.047-142.4 56.297 66 107.34 99.469 151.78 99.469 41.344 0 75-33.656 75-75 0-41.391-33.656-75-75-75s-75 33.656-75 75v0.5625c-48.984-41.953-95.578-108.84-115.22-141.47-4.7344-7.875-14.484-11.156-23.016-7.7812s-13.359 12.469-11.344 21.469c33 148.6 107.67 240.19 130.03 264.98l-21 196.4-71.344 279.94c-1.4062 5.625-0.1875 11.531 3.375 16.125 3.5156 4.5469 9 7.2188 14.812 7.2188h93.75c7.125 0 13.594-4.0312 16.781-10.359 3.1875-6.375 2.4844-13.969-1.7812-19.641l-21.938-29.25 50.625-135 12.656 176.9c0.70313 9.8438 8.8594 17.438 18.703 17.438h150c7.125 0 13.594-4.0312 16.781-10.359 3.1875-6.375 2.4844-13.969-1.7812-19.641l-21.938-29.25zm-143.06-615.74c20.672 0 37.5 16.828 37.5 37.5 0 20.672-16.828 37.5-37.5 37.5s-37.5-16.828-37.5-37.5c0-20.672 16.828-37.5 37.5-37.5z"/>
 <path fill="#FFFFFF" d="m342.19 327.79c37.781 68.625 80.344 103.45 126.56 103.45 24.188 0 52.781 23.109 61.781 32.062 3.6562 3.6562 8.4375 5.4375 13.219 5.4375 4.8281 0 9.5625-1.8281 13.266-5.4844 7.3125-7.3125 7.3125-19.219 0-26.531-2.4844-2.4844-16.266-15.844-35.719-27.047 13.875-13.594 22.453-32.531 22.453-53.438 0-41.344-33.656-75-75-75-36.516 0-67.031 26.25-73.641 60.844-28.922-40.453-49.969-94.406-58.406-122.48-3-9.9375-13.406-15.562-23.344-12.562s-15.562 13.406-12.562 23.344c0.60938 1.9688 14.906 49.312 41.344 97.406zm126.56-9.0469c20.672 0 37.5 16.828 37.5 37.5s-16.828 37.5-37.5 37.5-37.5-16.828-37.5-37.5 16.828-37.5 37.5-37.5z"/>
</svg>
