<?xml version="1.0" encoding="UTF-8"?>
<svg width="30pt" height="30pt" version="1.1" viewBox="0 0 100 100" xmlns="http://www.w3.org/2000/svg">
 <path fill="#000000" d="m51.387 48.758h-2.7734c-6.1484 0-11.148 5-11.148 11.152 0 3.8242 6.7539 5.1836 12.539 5.1836s12.535-1.3555 12.535-5.1836c0-6.1523-5.0039-11.152-11.152-11.152z"/>
 <path fill="#000000" d="m50 48.527c3.6758 0 6.668-2.9922 6.668-6.668s-2.9922-6.6719-6.668-6.6719-6.668 2.9922-6.668 6.668 2.9922 6.6719 6.668 6.6719z"/>
 <path fill="#000000" d="m12.023 49.605h-1.0117c-2.1758 0-3.9492 1.7695-3.9492 3.9492 0 1.2305 2.2383 1.7773 4.4531 1.7773 2.2188 0 4.457-0.55078 4.457-1.7773 0-2.1797-1.7695-3.9492-3.9492-3.9492z"/>
 <path fill="#000000" d="m13.836 46.98c0 3.0898-4.6328 3.0898-4.6328 0 0-3.0859 4.6328-3.0859 4.6328 0"/>
 <path fill="#000000" d="m35.504 19.629c0-2.1797-1.7734-3.9531-3.9492-3.9531h-1.0117c-2.1758 0-3.9492 1.7734-3.9492 3.9531 0 1.2305 2.2383 1.7773 4.457 1.7773 2.2148 0 4.4531-0.54688 4.4531-1.7773z"/>
 <path fill="#000000" d="m33.363 13.055c0 3.0898-4.6328 3.0898-4.6328 0 0-3.0898 4.6328-3.0898 4.6328 0"/>
 <path fill="#000000" d="m69.352 21.707c2.2188 0 4.457-0.55078 4.457-1.7773 0-2.1797-1.7734-3.9492-3.9492-3.9492h-1.0117c-2.1758 0-3.9492 1.7695-3.9492 3.9492-0.003907 1.2305 2.2344 1.7773 4.4531 1.7773z"/>
 <path fill="#000000" d="m71.668 13.359c0 3.0859-4.6328 3.0859-4.6328 0 0-3.0898 4.6328-3.0898 4.6328 0"/>
 <path fill="#000000" d="m88.984 49.406h-1.0117c-2.1758 0-3.9492 1.7734-3.9492 3.9531 0 1.2305 2.2383 1.7773 4.457 1.7773s4.4531-0.55078 4.4531-1.7773c0.003906-2.1797-1.7695-3.9531-3.9492-3.9531z"/>
 <path fill="#000000" d="m90.797 46.785c0 3.0898-4.6328 3.0898-4.6328 0s4.6328-3.0898 4.6328 0"/>
 <path fill="#000000" d="m68.449 82.867c-2.1758 0-3.9492 1.7695-3.9492 3.9492 0 1.2305 2.2383 1.7773 4.4531 1.7773 2.2188 0 4.457-0.55078 4.457-1.7773 0-2.1797-1.7734-3.9492-3.9492-3.9492z"/>
 <path fill="#000000" d="m71.27 80.246c0 3.0859-4.6328 3.0859-4.6328 0 0-3.0898 4.6328-3.0898 4.6328 0"/>
 <path fill="#000000" d="m31.16 82.867h-1.0117c-2.1758 0-3.9492 1.7695-3.9492 3.9492 0 1.2305 2.2383 1.7773 4.457 1.7773s4.4531-0.54688 4.4531-1.7773c0-2.1797-1.7734-3.9492-3.9492-3.9492z"/>
 <path fill="#000000" d="m32.973 80.242c0 3.0938-4.6367 3.0938-4.6367 0 0-3.0898 4.6367-3.0898 4.6367 0"/>
 <path fill="#000000" d="m88.48 41.418c-4.3359 0-7.8945 3.2422-8.4648 7.4219h-7.832l-10.043-17.398 3.9375-6.7734c1.0352 0.42969 2.1445 0.65234 3.2656 0.65234 3.0469 0 5.8945-1.6367 7.4258-4.2695 1.1523-1.9805 1.4648-4.293 0.87891-6.5117-0.58594-2.2148-2.0039-4.0703-3.9844-5.2227-1.3125-0.76172-2.8008-1.1641-4.3086-1.1641-3.0469 0-5.8945 1.6367-7.4258 4.2695-1.1523 1.9805-1.4648 4.293-0.87891 6.5117 0.51953 1.9648 1.7188 3.6133 3.3555 4.7734l-3.7227 6.4062-20.605-0.003906-3.8516-6.8008c3.3555-2.5586 4.4258-7.2539 2.2891-11.027-1.5195-2.6875-4.3828-4.3555-7.4727-4.3555-1.4727 0-2.9336 0.38672-4.2227 1.1133-1.9961 1.1289-3.4336 2.9727-4.0469 5.1797-0.61328 2.207-0.32813 4.5234 0.80078 6.5156 1.5195 2.6875 4.3867 4.3594 7.4766 4.3594 1.2148 0 2.418-0.27344 3.5273-0.77734l3.6602 6.4648-10.426 18.059h-7.832c-0.57422-4.1797-4.1289-7.4219-8.4648-7.4219-4.7305 0-8.582 3.8477-8.582 8.582 0 4.7305 3.8516 8.582 8.582 8.582 4.4688 0 8.1094-3.4453 8.5039-7.8164h7.7891l10.387 17.988-3.9219 6.7383c-1.1328-0.52734-2.3672-0.82031-3.6211-0.82031-3.0469 0-5.8945 1.6367-7.4258 4.2695-2.3789 4.0898-0.98828 9.3516 3.1016 11.734 1.3125 0.76172 2.8008 1.1641 4.3086 1.1641 3.0469 0 5.8945-1.6367 7.4258-4.2695 1.1523-1.9805 1.4648-4.2969 0.87891-6.5117-0.48438-1.832-1.5625-3.3984-3.0391-4.543l4.0859-7.0273h20.148l3.9453 6.9648c-3.6055 2.5-4.8125 7.3633-2.6133 11.25 1.5195 2.6875 4.3867 4.3594 7.4766 4.3594 1.4727 0 2.9336-0.38672 4.2188-1.1133 4.1211-2.332 5.5742-7.5781 3.2422-11.699-1.5195-2.6875-4.3867-4.3555-7.4766-4.3555-1.0859 0-2.1641 0.21484-3.1719 0.61328l-3.8828-6.8828 10.309-17.859h7.7891c0.39453 4.3711 4.0352 7.8164 8.5039 7.8164 4.7305 0 8.582-3.8516 8.582-8.582 0.003906-4.7344-3.8438-8.582-8.5781-8.582zm-25.562-22.98c-0.45312-1.7148-0.21094-3.5117 0.68359-5.043 1.1875-2.043 3.3945-3.3086 5.7578-3.3086 1.168 0 2.3203 0.3125 3.3398 0.90625 1.5391 0.89453 2.6328 2.3281 3.0898 4.0508 0.45313 1.7188 0.21094 3.5078-0.68359 5.0469-1.1875 2.0391-3.3906 3.3047-5.7578 3.3047-1.168 0-2.3242-0.3125-3.3398-0.90625-1.5391-0.89453-2.6367-2.332-3.0898-4.0508zm-37.66 1.3477c-0.875-1.5469-1.0977-3.3398-0.62109-5.0547 0.47266-1.7109 1.5859-3.1367 3.1328-4.0117 1-0.5625 2.1328-0.86328 3.2734-0.86328 2.3984 0 4.6172 1.293 5.7969 3.375 1.8086 3.1914 0.67969 7.2656-2.5156 9.0703-1 0.56641-2.1289 0.86328-3.2695 0.86328-2.3984 0-4.6211-1.293-5.7969-3.3789zm-13.738 36.867c-3.668 0-6.6523-2.9844-6.6523-6.6523s2.9844-6.6523 6.6523-6.6523 6.6523 2.9844 6.6523 6.6523-2.9844 6.6523-6.6523 6.6523zm25.57 24.906c0.45312 1.7188 0.21094 3.5078-0.68359 5.0469-1.1875 2.043-3.3945 3.3086-5.7578 3.3086-1.168 0-2.3242-0.3125-3.3398-0.90625-3.1719-1.8438-4.25-5.9258-2.4062-9.0977 1.1875-2.0391 3.3945-3.3086 5.7578-3.3086 1.168 0 2.3242 0.3125 3.3398 0.90625 1.5352 0.89844 2.6328 2.3359 3.0898 4.0508zm37.652-1.3477c1.8086 3.1914 0.67969 7.2656-2.5117 9.0703-1 0.56641-2.1328 0.86328-3.2695 0.86328-2.3984 0-4.6172-1.293-5.7969-3.3789-1.8086-3.1914-0.67969-7.2578 2.5156-9.0664 1-0.56641 2.1289-0.86719 3.2695-0.86719 2.3945 0 4.6172 1.2969 5.793 3.3789zm-14.484-12.645h-20.516l-10.258-17.762 10.258-17.766h20.516l10.258 17.766zm28.223-10.914c-3.668 0-6.6523-2.9844-6.6523-6.6523s2.9844-6.6523 6.6523-6.6523 6.6523 2.9844 6.6523 6.6523-2.9844 6.6523-6.6523 6.6523z"/>
</svg>
