<svg fill="#000000" height="30px" width="30px" version="1.1" id="Layer_1" xmlns="http://www.w3.org/2000/svg" xmlns:xlink="http://www.w3.org/1999/xlink" viewBox="0 0 511.945 511.945" xml:space="preserve"><g id="SVGRepo_bgCarrier" stroke-width="0"></g><g id="SVGRepo_tracerCarrier" stroke-linecap="round" stroke-linejoin="round"></g><g id="SVGRepo_iconCarrier"> <g> <g> <path d="M511.8,175.928c-0.444-2.705-2.159-5.035-4.608-6.263l-134.554-67.268l27.913-27.913 c4.847-4.847,7.518-11.281,7.518-18.125c0-6.852-2.671-13.286-7.509-18.125l-12.092-12.109 c-9.993-9.984-26.266-9.984-36.267,0.009l-36.275,36.275c-0.785,0.794-1.408,1.732-1.843,2.773 c-0.427,1.05-0.657,2.15-0.657,3.268v27.75h-24.218l-21.683-21.692c-3.2-3.2-8.866-3.2-12.066,0l-6.059,6.059l-13.414-13.406 c-3.319-3.328-3.319-7.458-0.026-10.752l37.146-36.804c3.396-3.405,8.687-3.456,12.041-0.102l12.655,12.663l-6.059,6.059 c-3.337,3.337-3.337,8.738,0,12.066c3.336,3.336,8.738,3.336,12.066,0L315.9,38.2c3.337-3.336,3.337-8.738,0-12.066L297.212,7.437 c-9.95-9.958-26.18-9.899-36.139,0.077l-37.146,36.796c-9.958,9.958-9.958,24.969-0.009,34.918l19.447,19.439 c3.337,3.337,8.73,3.337,12.066,0l6.059-6.05l12.117,12.117L7.531,370.812c-9.992,9.993-9.992,26.266,0,36.258l12.092,12.083 c4.838,4.847,11.281,7.518,18.125,7.518c6.852,0,13.286-2.671,18.125-7.509l165.905-165.905v58.888l-31.633,31.633 c-1.604,1.596-2.5,3.772-2.5,6.033c0,4.284,0.401,105.591,35.567,158.336c1.579,2.372,4.241,3.797,7.1,3.797 c2.85,0,5.513-1.425,7.1-3.797c35.157-52.745,35.567-154.052,35.567-158.336c0-2.261-0.905-4.437-2.5-6.033l-31.633-31.633V236.19 l89.148-89.139c0.785-0.794,1.408-1.732,1.843-2.773c0.427-1.05,0.657-2.15,0.657-3.268v-27.742h25.728l132.745,66.364 L372.672,295.923l-40.388-80.776c28.194-30.498,22.716-50.389,21.965-52.642c-1.459-4.344-6.025-6.579-10.394-5.316 c-4.395,1.254-6.963,5.939-5.896,10.377c0.026,0.145,3.174,14.78-22.033,39.979c-2.594,2.594-3.243,6.562-1.596,9.847 l48.375,96.759c1.229,2.449,3.558,4.164,6.263,4.608c0.461,0.068,0.913,0.102,1.365,0.102c2.253,0,4.429-0.887,6.042-2.492 l133.026-133.043C511.347,181.389,512.235,178.633,511.8,175.928z M43.806,407.096c-3.234,3.234-8.875,3.243-12.117,0 l-12.092-12.092c-3.337-3.345-3.337-8.781,0-12.126L183.65,218.825l11.401,37.035L43.806,407.096z M208.696,242.206 l-11.392-37.035l11.947-11.947l11.392,37.035L208.696,242.206z M255.859,353.293c-0.358,16.495-3.217,87.706-25.549,132.966 c-22.332-45.261-25.19-116.471-25.549-132.966l17.016-17.016v81.801c0,4.71,3.823,8.533,8.533,8.533 c4.71,0,8.533-3.823,8.533-8.533v-81.801L255.859,353.293z M234.296,216.606l-11.392-37.035l11.947-11.947l11.401,37.035 L234.296,216.606z M259.896,191.006l-11.392-37.035l37.18-37.171l24.209,24.209L259.896,191.006z M313.425,120.41l-7.142-7.142 h7.142V120.41z M330.492,96.201V89.05l7.142,7.151H330.492z M334.025,68.45L364.267,38.2c3.354-3.328,8.798-3.336,12.134-0.008 L388.484,50.3c1.621,1.613,2.517,3.763,2.517,6.059c0,2.287-0.896,4.437-2.517,6.059l-30.242,30.251L334.025,68.45z"></path> </g> </g> </g></svg>