<svg width="933" height="381" viewBox="0 0 933 381" fill="none" xmlns="http://www.w3.org/2000/svg">
<line x1="569.074" y1="44.5047" x2="724.074" y2="23.0761" stroke="#FCFCFC"/>
<line x1="686.765" y1="109.013" x2="570.336" y2="46.8697" stroke="#FCFCFC"/>
<line x1="687.443" y1="109.58" x2="834.586" y2="14.5799" stroke="#FCFCFC"/>
<line x1="687.907" y1="109.539" x2="800.764" y2="156.681" stroke="#FCFCFC"/>
<line x1="835.343" y1="15.1172" x2="801.057" y2="157.26" stroke="#FCFCFC"/>
<line x1="835.291" y1="14.7515" x2="916.72" y2="156.894" stroke="#FCFCFC"/>
<line x1="800.559" y1="156.643" x2="916.273" y2="153.786" stroke="#FCFCFC"/>
<circle cx="687.714" cy="110" r="12.8571" fill="#FCFCFC"/>
<circle cx="800.571" cy="154.286" r="20.7143" fill="#FCFCFC"/>
<circle cx="916.286" cy="157.143" r="16.4286" fill="#FCFCFC"/>
<circle cx="834.857" cy="15" r="15" fill="#FCFCFC"/>
<circle cx="723.786" cy="23.2143" r="8.21429" fill="#FCFCFC"/>
<circle cx="570.214" cy="46.0715" r="8.21429" fill="#FCFCFC"/>
<circle cx="890.214" cy="231.786" r="8.21429" fill="#FCFCFC"/>
<path d="M147.2 106.4C147.2 151 120 181.6 77.4 181.6C34.8 181.6 7.6 151 7.6 106.4C7.6 61.8 34.8 31.4 77.4 31.4C120 31.4 147.2 61.8 147.2 106.4ZM33.6 106.4C33.6 141.8 53.2 161 77.4 161C101.4 161 121 141.8 121 106.4C121 71 101.4 52 77.4 52C53.2 52 33.6 71 33.6 106.4ZM169.883 34H212.483C244.683 34 274.883 39.6 274.883 79.2C274.883 115.6 247.283 124 213.083 124H195.083V179H169.883V34ZM213.483 54.8H195.083V103.2H214.683C231.483 103.2 248.883 101.2 248.883 79.2C248.883 57 231.483 54.8 213.483 54.8ZM294.492 179V34H386.292V55H319.692V94.2H382.092V115.2H319.692V158H386.292V179H294.492ZM530.703 179H496.303L435.103 63.2V179H410.703V34H444.903L506.303 149.8V34H530.703V179ZM15 214H57.6C89.8 214 120 219.6 120 259.2C120 295.6 92.4 304 58.2 304H40.2V359H15V214ZM58.6 234.8H40.2V283.2H59.8C76.6 283.2 94 281.2 94 259.2C94 237 76.6 234.8 58.6 234.8ZM271.809 286.4C271.809 331 244.609 361.6 202.009 361.6C159.409 361.6 132.209 331 132.209 286.4C132.209 241.8 159.409 211.4 202.009 211.4C244.609 211.4 271.809 241.8 271.809 286.4ZM158.209 286.4C158.209 321.8 177.809 341 202.009 341C226.009 341 245.609 321.8 245.609 286.4C245.609 251 226.009 232 202.009 232C177.809 232 158.209 251 158.209 286.4ZM319.692 214V338H379.492V359H294.492V214H319.692ZM467.989 359H391.389V338H416.989V235H391.389V214H467.989V235H442.389V338H467.989V359ZM524.786 359V235H479.786V214H594.986V235H549.986V359H524.786ZM683.419 359H606.819V338H632.419V235H606.819V214H683.419V235H657.819V338H683.419V359ZM719.538 286.6C719.538 323.4 741.938 340 769.338 340C783.538 340 795.338 336 805.738 330.8V354C795.738 358.2 781.338 361.6 766.938 361.6C719.938 361.6 693.338 329.6 693.338 286.6C693.338 238.4 726.738 211.4 766.938 211.4C780.338 211.4 795.738 213.6 805.738 218.6V241.8C795.738 236.8 783.538 233 769.338 233C741.938 233 719.538 249.8 719.538 286.6ZM863.881 361.6C845.481 361.6 832.081 358 823.081 353.8V329.6C833.281 335 845.281 339.8 862.881 339.8C879.281 339.8 893.881 334.2 893.881 319.8C893.881 308.6 884.681 303 870.081 298.2L858.081 294.2C834.881 286.8 821.481 272.2 821.481 253.2C821.481 227.2 846.281 211.4 875.881 211.4C888.881 211.4 902.081 213.4 910.881 217.4V240.2C901.081 235.6 888.681 233 875.681 233C860.481 233 846.681 238.4 846.681 251.2C846.681 260.4 854.081 267 868.281 271.6L880.281 275.6C904.881 283.6 919.881 295 919.881 317.6C919.881 344 894.881 361.6 863.881 361.6Z" fill="#FCFCFC"/>
</svg>
