<svg width="933" height="381" viewBox="0 0 933 381" fill="none" xmlns="http://www.w3.org/2000/svg">
<line x1="569.074" y1="44.5047" x2="724.074" y2="23.0761" stroke="#0F172A"/>
<line x1="686.765" y1="109.013" x2="570.336" y2="46.8697" stroke="#0F172A"/>
<line x1="687.443" y1="109.58" x2="834.586" y2="14.5799" stroke="#0F172A"/>
<line x1="687.907" y1="109.539" x2="800.764" y2="156.681" stroke="#0F172A"/>
<line x1="835.343" y1="15.1172" x2="801.057" y2="157.26" stroke="#0F172A"/>
<line x1="835.291" y1="14.7515" x2="916.72" y2="156.894" stroke="#0F172A"/>
<line x1="800.559" y1="156.643" x2="916.273" y2="153.786" stroke="#0F172A"/>
<circle cx="687.714" cy="110" r="12.8571" fill="#0F172A"/>
<circle cx="800.571" cy="154.286" r="20.7143" fill="#0F172A"/>
<circle cx="916.286" cy="157.143" r="16.4286" fill="#0F172A"/>
<circle cx="834.857" cy="15" r="15" fill="#0F172A"/>
<circle cx="723.786" cy="23.2143" r="8.21429" fill="#0F172A"/>
<circle cx="570.214" cy="46.0715" r="8.21429" fill="#0F172A"/>
<circle cx="890.214" cy="231.786" r="8.21429" fill="#0F172A"/>
<path d="M77.4 181.6C63.4 181.6 51.1333 178.467 40.6 172.2C30.0667 165.8 21.9333 156.933 16.2 145.6C10.4667 134.267 7.6 121.2 7.6 106.4C7.6 91.6 10.4667 78.5333 16.2 67.2C21.9333 55.8667 30.0667 47.0667 40.6 40.8C51.1333 34.5333 63.4 31.4 77.4 31.4C91.4 31.4 103.667 34.5333 114.2 40.8C124.733 47.0667 132.867 55.8667 138.6 67.2C144.333 78.5333 147.2 91.6 147.2 106.4C147.2 121.2 144.333 134.267 138.6 145.6C132.867 156.933 124.733 165.8 114.2 172.2C103.667 178.467 91.4 181.6 77.4 181.6ZM77.4 161C85.5333 161 92.8667 158.867 99.4 154.6C106.067 150.333 111.333 144.133 115.2 136C119.067 127.733 121 117.867 121 106.4C121 94.9333 119.067 85.1333 115.2 77C111.333 68.7333 106.067 62.5333 99.4 58.4C92.8667 54.1333 85.5333 52 77.4 52C69.1333 52 61.6667 54.1333 55 58.4C48.4667 62.5333 43.2667 68.7333 39.4 77C35.5333 85.1333 33.6 94.9333 33.6 106.4C33.6 117.867 35.5333 127.733 39.4 136C43.2667 144.133 48.5333 150.333 55.2 154.6C61.8667 158.867 69.2667 161 77.4 161ZM212.483 34C225.016 34 235.749 35.1333 244.683 37.4C253.616 39.5333 260.883 43.9333 266.483 50.6C272.083 57.2667 274.883 66.8 274.883 79.2C274.883 96 269.416 107.667 258.483 114.2C247.549 120.733 232.416 124 213.083 124H195.083V179H169.883V34H212.483ZM195.083 54.8V103.2H214.683C221.483 103.2 227.283 102.667 232.083 101.6C237.016 100.533 241.016 98.2667 244.083 94.8C247.283 91.2 248.883 86 248.883 79.2C248.883 72.2667 247.283 67 244.083 63.4C240.883 59.8 236.749 57.4667 231.683 56.4C226.749 55.3333 220.683 54.8 213.483 54.8H195.083ZM386.292 179H294.492V34H386.292V55H319.692V94.2H382.092V115.2H319.692V158H386.292V179ZM530.703 34V179H496.303L435.103 63.2V179H410.703V34H444.903L506.303 149.8V34H530.703ZM57.6 214C70.1333 214 80.8667 215.133 89.8 217.4C98.7333 219.533 106 223.933 111.6 230.6C117.2 237.267 120 246.8 120 259.2C120 276 114.533 287.667 103.6 294.2C92.6667 300.733 77.5333 304 58.2 304H40.2V359H15V214H57.6ZM40.2 234.8V283.2H59.8C66.6 283.2 72.4 282.667 77.2 281.6C82.1333 280.533 86.1333 278.267 89.2 274.8C92.4 271.2 94 266 94 259.2C94 252.267 92.4 247 89.2 243.4C86 239.8 81.8667 237.467 76.8 236.4C71.8667 235.333 65.8 234.8 58.6 234.8H40.2ZM202.009 361.6C188.009 361.6 175.743 358.467 165.209 352.2C154.676 345.8 146.543 336.933 140.809 325.6C135.076 314.267 132.209 301.2 132.209 286.4C132.209 271.6 135.076 258.533 140.809 247.2C146.543 235.867 154.676 227.067 165.209 220.8C175.743 214.533 188.009 211.4 202.009 211.4C216.009 211.4 228.276 214.533 238.809 220.8C249.343 227.067 257.476 235.867 263.209 247.2C268.943 258.533 271.809 271.6 271.809 286.4C271.809 301.2 268.943 314.267 263.209 325.6C257.476 336.933 249.343 345.8 238.809 352.2C228.276 358.467 216.009 361.6 202.009 361.6ZM202.009 341C210.143 341 217.476 338.867 224.009 334.6C230.676 330.333 235.943 324.133 239.809 316C243.676 307.733 245.609 297.867 245.609 286.4C245.609 274.933 243.676 265.133 239.809 257C235.943 248.733 230.676 242.533 224.009 238.4C217.476 234.133 210.143 232 202.009 232C193.743 232 186.276 234.133 179.609 238.4C173.076 242.533 167.876 248.733 164.009 257C160.143 265.133 158.209 274.933 158.209 286.4C158.209 297.867 160.143 307.733 164.009 316C167.876 324.133 173.143 330.333 179.809 334.6C186.476 338.867 193.876 341 202.009 341ZM294.492 214H319.692V338H379.492V359H294.492V214ZM467.989 338V359H391.389V338H416.989V235H391.389V214H467.989V235H442.389V338H467.989ZM549.986 359H524.786V235H479.786V214H594.986V235H549.986V359ZM683.419 338V359H606.819V338H632.419V235H606.819V214H683.419V235H657.819V338H683.419ZM769.338 340C781.338 340 793.471 336.933 805.738 330.8V354C800.404 356.267 794.271 358.067 787.338 359.4C780.538 360.867 773.738 361.6 766.938 361.6C751.604 361.6 738.404 358.4 727.338 352C716.271 345.467 707.804 336.533 701.938 325.2C696.204 313.867 693.338 301 693.338 286.6C693.338 271 696.604 257.533 703.138 246.2C709.671 234.867 718.538 226.267 729.738 220.4C740.938 214.4 753.338 211.4 766.938 211.4C774.138 211.4 781.204 212 788.138 213.2C795.071 214.4 800.938 216.2 805.738 218.6V241.8C794.004 235.933 781.871 233 769.338 233C759.871 233 751.404 235 743.938 239C736.471 242.867 730.538 248.8 726.138 256.8C721.738 264.8 719.538 274.733 719.538 286.6C719.538 298.467 721.738 308.4 726.138 316.4C730.538 324.4 736.471 330.333 743.938 334.2C751.404 338.067 759.871 340 769.338 340ZM823.081 353.8V329.6C829.081 332.8 835.215 335.333 841.481 337.2C847.748 338.933 854.881 339.8 862.881 339.8C871.815 339.8 879.215 338.2 885.081 335C890.948 331.667 893.881 326.6 893.881 319.8C893.881 314.467 891.881 310.2 887.881 307C884.015 303.8 878.081 300.867 870.081 298.2L858.081 294.2C846.481 290.467 837.481 285.067 831.081 278C824.681 270.933 821.481 262.667 821.481 253.2C821.481 244.8 823.881 237.467 828.681 231.2C833.615 224.8 840.215 219.933 848.481 216.6C856.748 213.133 865.881 211.4 875.881 211.4C882.548 211.4 888.948 211.933 895.081 213C901.348 213.933 906.615 215.4 910.881 217.4V240.2C900.615 235.4 888.881 233 875.681 233C867.415 233 860.481 234.533 854.881 237.6C849.415 240.667 846.681 245.2 846.681 251.2C846.681 260.133 853.881 266.933 868.281 271.6L880.281 275.6C893.481 279.867 903.348 285.267 909.881 291.8C916.548 298.2 919.881 306.8 919.881 317.6C919.881 326.133 917.348 333.8 912.281 340.6C907.348 347.267 900.615 352.467 892.081 356.2C883.548 359.8 874.148 361.6 863.881 361.6C847.881 361.6 834.281 359 823.081 353.8Z" fill="#0F172A"/>
</svg>
